<?xml version="1.0" encoding="UTF-8" standalone="no"?>
<!DOCTYPE svg PUBLIC "-//W3C//DTD SVG 1.1//EN" "http://www.w3.org/Graphics/SVG/1.1/DTD/svg11.dtd">
<svg width="100%" height="100%" viewBox="0 0 1000 1000" version="1.1" xmlns="http://www.w3.org/2000/svg" xmlns:xlink="http://www.w3.org/1999/xlink" xml:space="preserve" xmlns:serif="http://www.serif.com/" style="fill-rule:evenodd;clip-rule:evenodd;stroke-linejoin:round;stroke-miterlimit:2;">
    <g id="Logo-thicc" serif:id="Logo thicc" transform="matrix(0.951021,0.167691,-0.17226,0.976937,388.913,-461.921)">
        <g id="P" transform="matrix(1,1.66533e-16,-1.66533e-16,1,-414.951,166.751)">
            <g transform="matrix(2.29266,-9.87861e-16,1.49452e-16,0.513066,-357.866,463.412)">
                <path d="M475.203,249.526C475.203,226.077 473.062,203.588 469.25,187.007C465.438,170.426 460.269,161.111 454.878,161.111C454.878,161.111 454.878,161.111 454.878,161.111C443.653,161.111 434.553,200.696 434.553,249.526L434.553,1448.04C434.553,1471.48 436.694,1493.97 440.506,1510.55C444.318,1527.13 449.487,1536.45 454.878,1536.45C454.878,1536.45 454.878,1536.45 454.878,1536.45C466.103,1536.45 475.203,1496.87 475.203,1448.04L475.203,249.526Z" style="fill:rgb(235,235,235);"/>
            </g>
            <g transform="matrix(0.788973,-1.09487e-16,1.04803e-16,0.768043,287.571,195.641)">
                <path d="M825.063,459.485C939.188,479.608 1015.51,588.601 995.383,702.727C975.259,816.852 866.266,893.17 752.141,873.047C638.015,852.923 561.698,743.93 581.821,629.805C601.945,515.679 710.938,439.362 825.063,459.485ZM809.44,548.089C874.663,559.589 918.28,621.88 906.779,687.104C895.278,752.327 832.988,795.943 767.764,784.443C702.541,772.942 658.924,710.652 670.425,645.428C681.926,580.204 744.216,536.588 809.44,548.089Z" style="fill:rgb(235,235,235);"/>
            </g>
        </g>
        <g id="L" transform="matrix(1.03553,2.89732e-17,5.79464e-17,1.00806,-362.969,423.574)">
            <path d="M293.514,737.389L293.514,737.337L293.514,127.337C293.514,102.484 313.661,82.337 338.514,82.337L338.514,82.337C350.449,82.337 361.895,87.078 370.334,95.517C378.773,103.956 383.514,115.402 383.514,127.337L383.514,641.36C383.514,646.727 386.204,651.738 390.678,654.704C395.152,657.671 400.814,658.198 405.759,656.108C498.743,617.426 611.313,579.836 611.313,579.836C611.313,579.836 443.864,728.163 361.763,775.873C357.187,778.64 352.078,780.615 346.627,781.607L346.526,781.626L346.48,781.634L346.462,781.637C343.839,782.106 341.197,782.337 338.566,782.337L338.514,782.337C330.443,782.337 322.595,780.168 315.749,776.153C309.942,772.757 304.828,768.018 300.923,762.074L300.909,762.052L300.862,761.98C299.98,760.632 299.172,759.24 298.441,757.81L298.434,757.796L298.418,757.764C295.099,751.262 293.514,744.285 293.514,737.389Z" style="fill:rgb(235,235,235);"/>
        </g>
    </g>
</svg>
